<svg width="1em" height="1em" viewBox="0 0 36 48" fill="none" xmlns="http://www.w3.org/2000/svg">
<path d="M2.21797 38.2414H6.90421C7.23116 38.2414 7.50362 38.1341 7.72158 37.9195C7.97588 37.6692 8.10302 37.3653 8.10302 37.0077V20.0038C8.10302 19.682 7.97588 19.4317 7.72158 19.2529C7.50362 19.0383 7.23116 18.931 6.90421 18.931H4.45211C3.76188 18.931 3.18064 18.6986 2.70839 18.2337C2.23613 17.7331 2 17.143 2 16.4636V5.46743C2 4.788 2.23613 4.21584 2.70839 3.75096C3.18064 3.25032 3.76188 3 4.45211 3H15.4593V9.75862H10.5551C10.1919 9.75862 9.90123 9.88378 9.68327 10.1341C9.4653 10.3487 9.35632 10.6169 9.35632 10.9387V10.9923C9.35632 11.3499 9.4653 11.636 9.68327 11.8506C9.90123 12.0651 10.1919 12.1724 10.5551 12.1724H12.9527C13.6793 12.1724 14.2787 12.4049 14.751 12.8697C15.2232 13.3346 15.4593 13.9246 15.4593 14.6398V42.5326C15.4593 43.212 15.2051 43.802 14.6965 44.3027C14.2242 44.7676 13.643 45 12.9527 45H2.21797V38.2414Z" fill="#0084AC"/>
<path d="M17.6828 3.75096C17.2106 4.21584 16.9745 4.788 16.9745 5.46743V7.18391H24.3308V10.9387C24.3308 10.6169 24.4398 10.3487 24.6577 10.1341C24.8757 9.88378 25.1663 9.75862 25.5296 9.75862H25.802H26.238H26.7284H34V3H32.8859H31.6326H19.4266C18.7363 3 18.1551 3.25032 17.6828 3.75096Z" fill="#0084AC"/>
<path d="M16.9745 7.18391V10.9387H24.3308V7.18391H16.9745Z" fill="#0084AC"/>
<path d="M24.3308 12.8697V10.9387H16.9745V12.8697V20.1111H24.3308V12.8697Z" fill="#0084AC"/>
<path d="M24.3308 10.9387V12.8697V20.1111C24.3308 19.7535 24.4398 19.4674 24.6577 19.2529C24.8757 19.0383 25.1663 18.931 25.5296 18.931H34V12.1724H25.4751C25.1482 12.1724 24.8757 12.0651 24.6577 11.8506C24.4398 11.636 24.3308 11.3321 24.3308 10.9387Z" fill="#0084AC"/>
<path d="M24.3308 45V20.1111H16.9745V45H24.3308Z" fill="#0084AC"/>
</svg>
